<mxfile host="Electron" modified="2023-08-05T13:04:51.490Z" agent="Mozilla/5.0 (X11; Linux x86_64) AppleWebKit/537.36 (KHTML, like Gecko) draw.io/21.6.5 Chrome/114.0.5735.243 Electron/25.3.1 Safari/537.36" etag="QA07TTi9umEEsc8zJ4Xa" version="21.6.5" type="device">
  <diagram name="Page-1" id="2c0d36ab-eaac-3732-788b-9136903baeff">
    <mxGraphModel dx="3550.5" dy="1277" grid="1" gridSize="10" guides="1" tooltips="1" connect="1" arrows="1" fold="1" page="1" pageScale="1.5" pageWidth="1169" pageHeight="827" background="none" math="0" shadow="0">
      <root>
        <mxCell id="0" />
        <mxCell id="1" parent="0" />
        <mxCell id="_uLuX_1wN8HrfHsC8-Q0-167" style="edgeStyle=orthogonalEdgeStyle;rounded=0;orthogonalLoop=1;jettySize=auto;html=1;entryX=0.5;entryY=0;entryDx=0;entryDy=0;" edge="1" parent="1" source="_uLuX_1wN8HrfHsC8-Q0-123" target="_uLuX_1wN8HrfHsC8-Q0-134">
          <mxGeometry relative="1" as="geometry">
            <Array as="points">
              <mxPoint x="690" y="250" />
              <mxPoint x="710" y="250" />
            </Array>
          </mxGeometry>
        </mxCell>
        <mxCell id="_uLuX_1wN8HrfHsC8-Q0-168" style="edgeStyle=orthogonalEdgeStyle;rounded=0;orthogonalLoop=1;jettySize=auto;html=1;" edge="1" parent="1" source="_uLuX_1wN8HrfHsC8-Q0-123" target="_uLuX_1wN8HrfHsC8-Q0-163">
          <mxGeometry relative="1" as="geometry">
            <Array as="points">
              <mxPoint x="690" y="250" />
              <mxPoint x="1530" y="250" />
            </Array>
          </mxGeometry>
        </mxCell>
        <mxCell id="_uLuX_1wN8HrfHsC8-Q0-192" style="edgeStyle=orthogonalEdgeStyle;rounded=0;orthogonalLoop=1;jettySize=auto;html=1;entryX=0.5;entryY=0;entryDx=0;entryDy=0;" edge="1" parent="1" source="_uLuX_1wN8HrfHsC8-Q0-123" target="_uLuX_1wN8HrfHsC8-Q0-191">
          <mxGeometry relative="1" as="geometry">
            <Array as="points">
              <mxPoint x="690" y="250" />
              <mxPoint x="170" y="250" />
            </Array>
          </mxGeometry>
        </mxCell>
        <mxCell id="_uLuX_1wN8HrfHsC8-Q0-224" style="edgeStyle=orthogonalEdgeStyle;rounded=0;orthogonalLoop=1;jettySize=auto;html=1;entryX=0.5;entryY=0;entryDx=0;entryDy=0;" edge="1" parent="1" source="_uLuX_1wN8HrfHsC8-Q0-123" target="_uLuX_1wN8HrfHsC8-Q0-223">
          <mxGeometry relative="1" as="geometry">
            <Array as="points">
              <mxPoint x="690" y="250" />
              <mxPoint x="2090" y="250" />
            </Array>
          </mxGeometry>
        </mxCell>
        <mxCell id="_uLuX_1wN8HrfHsC8-Q0-123" value="Home" style="ellipse;whiteSpace=wrap;html=1;fillColor=#f8cecc;strokeColor=#b85450;" vertex="1" parent="1">
          <mxGeometry x="630" y="110" width="120" height="80" as="geometry" />
        </mxCell>
        <mxCell id="_uLuX_1wN8HrfHsC8-Q0-140" value="" style="edgeStyle=orthogonalEdgeStyle;rounded=0;orthogonalLoop=1;jettySize=auto;html=1;" edge="1" parent="1" source="_uLuX_1wN8HrfHsC8-Q0-134" target="_uLuX_1wN8HrfHsC8-Q0-137">
          <mxGeometry relative="1" as="geometry" />
        </mxCell>
        <mxCell id="_uLuX_1wN8HrfHsC8-Q0-141" style="edgeStyle=orthogonalEdgeStyle;rounded=0;orthogonalLoop=1;jettySize=auto;html=1;entryX=0.5;entryY=0;entryDx=0;entryDy=0;" edge="1" parent="1" source="_uLuX_1wN8HrfHsC8-Q0-134" target="_uLuX_1wN8HrfHsC8-Q0-136">
          <mxGeometry relative="1" as="geometry" />
        </mxCell>
        <mxCell id="_uLuX_1wN8HrfHsC8-Q0-160" style="edgeStyle=orthogonalEdgeStyle;rounded=0;orthogonalLoop=1;jettySize=auto;html=1;entryX=0.5;entryY=0;entryDx=0;entryDy=0;" edge="1" parent="1" source="_uLuX_1wN8HrfHsC8-Q0-134" target="_uLuX_1wN8HrfHsC8-Q0-159">
          <mxGeometry relative="1" as="geometry">
            <Array as="points">
              <mxPoint x="710" y="390" />
              <mxPoint x="1210" y="390" />
            </Array>
          </mxGeometry>
        </mxCell>
        <mxCell id="_uLuX_1wN8HrfHsC8-Q0-134" value="Pet Shop" style="rounded=0;whiteSpace=wrap;html=1;fillColor=#ffe6cc;strokeColor=#d79b00;" vertex="1" parent="1">
          <mxGeometry x="650" y="280" width="120" height="60" as="geometry" />
        </mxCell>
        <mxCell id="_uLuX_1wN8HrfHsC8-Q0-142" style="edgeStyle=orthogonalEdgeStyle;rounded=0;orthogonalLoop=1;jettySize=auto;html=1;" edge="1" parent="1" source="_uLuX_1wN8HrfHsC8-Q0-136" target="_uLuX_1wN8HrfHsC8-Q0-138">
          <mxGeometry relative="1" as="geometry">
            <Array as="points">
              <mxPoint x="590" y="780" />
              <mxPoint x="670" y="780" />
            </Array>
          </mxGeometry>
        </mxCell>
        <mxCell id="_uLuX_1wN8HrfHsC8-Q0-136" value="Search" style="rounded=0;whiteSpace=wrap;html=1;" vertex="1" parent="1">
          <mxGeometry x="530" y="440" width="120" height="60" as="geometry" />
        </mxCell>
        <mxCell id="_uLuX_1wN8HrfHsC8-Q0-143" style="edgeStyle=orthogonalEdgeStyle;rounded=0;orthogonalLoop=1;jettySize=auto;html=1;entryX=0.5;entryY=0;entryDx=0;entryDy=0;" edge="1" parent="1" source="_uLuX_1wN8HrfHsC8-Q0-137" target="_uLuX_1wN8HrfHsC8-Q0-138">
          <mxGeometry relative="1" as="geometry">
            <Array as="points">
              <mxPoint x="770" y="780" />
              <mxPoint x="670" y="780" />
            </Array>
          </mxGeometry>
        </mxCell>
        <mxCell id="_uLuX_1wN8HrfHsC8-Q0-152" style="edgeStyle=orthogonalEdgeStyle;rounded=0;orthogonalLoop=1;jettySize=auto;html=1;entryX=0;entryY=0.5;entryDx=0;entryDy=0;" edge="1" parent="1" source="_uLuX_1wN8HrfHsC8-Q0-137" target="_uLuX_1wN8HrfHsC8-Q0-139">
          <mxGeometry relative="1" as="geometry">
            <Array as="points">
              <mxPoint x="770" y="530" />
              <mxPoint x="900" y="530" />
            </Array>
          </mxGeometry>
        </mxCell>
        <mxCell id="_uLuX_1wN8HrfHsC8-Q0-154" style="edgeStyle=orthogonalEdgeStyle;rounded=0;orthogonalLoop=1;jettySize=auto;html=1;entryX=0;entryY=0.5;entryDx=0;entryDy=0;" edge="1" parent="1" source="_uLuX_1wN8HrfHsC8-Q0-137" target="_uLuX_1wN8HrfHsC8-Q0-153">
          <mxGeometry relative="1" as="geometry">
            <Array as="points">
              <mxPoint x="770" y="620" />
            </Array>
          </mxGeometry>
        </mxCell>
        <mxCell id="_uLuX_1wN8HrfHsC8-Q0-137" value="Category" style="rounded=0;whiteSpace=wrap;html=1;" vertex="1" parent="1">
          <mxGeometry x="710" y="440" width="120" height="60" as="geometry" />
        </mxCell>
        <mxCell id="_uLuX_1wN8HrfHsC8-Q0-156" style="edgeStyle=orthogonalEdgeStyle;rounded=0;orthogonalLoop=1;jettySize=auto;html=1;entryX=0.5;entryY=0;entryDx=0;entryDy=0;" edge="1" parent="1" source="_uLuX_1wN8HrfHsC8-Q0-138" target="_uLuX_1wN8HrfHsC8-Q0-155">
          <mxGeometry relative="1" as="geometry" />
        </mxCell>
        <mxCell id="_uLuX_1wN8HrfHsC8-Q0-189" style="edgeStyle=orthogonalEdgeStyle;rounded=0;orthogonalLoop=1;jettySize=auto;html=1;entryX=0;entryY=0.5;entryDx=0;entryDy=0;" edge="1" parent="1" source="_uLuX_1wN8HrfHsC8-Q0-138" target="_uLuX_1wN8HrfHsC8-Q0-188">
          <mxGeometry relative="1" as="geometry">
            <Array as="points">
              <mxPoint x="670" y="940" />
            </Array>
          </mxGeometry>
        </mxCell>
        <mxCell id="_uLuX_1wN8HrfHsC8-Q0-138" value="Product" style="rounded=0;whiteSpace=wrap;html=1;fillColor=#dae8fc;strokeColor=#6c8ebf;" vertex="1" parent="1">
          <mxGeometry x="610" y="850" width="120" height="60" as="geometry" />
        </mxCell>
        <mxCell id="_uLuX_1wN8HrfHsC8-Q0-139" value="See All" style="rounded=0;whiteSpace=wrap;html=1;" vertex="1" parent="1">
          <mxGeometry x="900" y="500" width="120" height="60" as="geometry" />
        </mxCell>
        <mxCell id="_uLuX_1wN8HrfHsC8-Q0-153" value="Filter" style="rounded=0;whiteSpace=wrap;html=1;" vertex="1" parent="1">
          <mxGeometry x="900" y="590" width="120" height="60" as="geometry" />
        </mxCell>
        <mxCell id="_uLuX_1wN8HrfHsC8-Q0-158" style="edgeStyle=orthogonalEdgeStyle;rounded=0;orthogonalLoop=1;jettySize=auto;html=1;" edge="1" parent="1" source="_uLuX_1wN8HrfHsC8-Q0-155" target="_uLuX_1wN8HrfHsC8-Q0-157">
          <mxGeometry relative="1" as="geometry" />
        </mxCell>
        <mxCell id="_uLuX_1wN8HrfHsC8-Q0-155" value="Add to Cart" style="rounded=0;whiteSpace=wrap;html=1;" vertex="1" parent="1">
          <mxGeometry x="610" y="980" width="120" height="60" as="geometry" />
        </mxCell>
        <mxCell id="_uLuX_1wN8HrfHsC8-Q0-157" value="View Cart" style="rounded=0;whiteSpace=wrap;html=1;" vertex="1" parent="1">
          <mxGeometry x="610" y="1100" width="120" height="60" as="geometry" />
        </mxCell>
        <mxCell id="_uLuX_1wN8HrfHsC8-Q0-162" style="edgeStyle=orthogonalEdgeStyle;rounded=0;orthogonalLoop=1;jettySize=auto;html=1;entryX=0.5;entryY=0;entryDx=0;entryDy=0;" edge="1" parent="1" source="_uLuX_1wN8HrfHsC8-Q0-159" target="_uLuX_1wN8HrfHsC8-Q0-161">
          <mxGeometry relative="1" as="geometry" />
        </mxCell>
        <mxCell id="_uLuX_1wN8HrfHsC8-Q0-159" value="Cart" style="rounded=0;whiteSpace=wrap;html=1;fillColor=#dae8fc;strokeColor=#6c8ebf;" vertex="1" parent="1">
          <mxGeometry x="1150" y="440" width="120" height="60" as="geometry" />
        </mxCell>
        <mxCell id="_uLuX_1wN8HrfHsC8-Q0-161" value="Check out" style="rounded=0;whiteSpace=wrap;html=1;" vertex="1" parent="1">
          <mxGeometry x="1150" y="570" width="120" height="60" as="geometry" />
        </mxCell>
        <mxCell id="_uLuX_1wN8HrfHsC8-Q0-171" style="edgeStyle=orthogonalEdgeStyle;rounded=0;orthogonalLoop=1;jettySize=auto;html=1;" edge="1" parent="1" source="_uLuX_1wN8HrfHsC8-Q0-163" target="_uLuX_1wN8HrfHsC8-Q0-169">
          <mxGeometry relative="1" as="geometry">
            <Array as="points">
              <mxPoint x="1530" y="390" />
              <mxPoint x="1450" y="390" />
            </Array>
          </mxGeometry>
        </mxCell>
        <mxCell id="_uLuX_1wN8HrfHsC8-Q0-172" style="edgeStyle=orthogonalEdgeStyle;rounded=0;orthogonalLoop=1;jettySize=auto;html=1;" edge="1" parent="1" source="_uLuX_1wN8HrfHsC8-Q0-163" target="_uLuX_1wN8HrfHsC8-Q0-170">
          <mxGeometry relative="1" as="geometry">
            <Array as="points">
              <mxPoint x="1530" y="390" />
              <mxPoint x="1720" y="390" />
            </Array>
          </mxGeometry>
        </mxCell>
        <mxCell id="_uLuX_1wN8HrfHsC8-Q0-163" value="Doctor Reservation" style="rounded=0;whiteSpace=wrap;html=1;fillColor=#ffe6cc;strokeColor=#d79b00;" vertex="1" parent="1">
          <mxGeometry x="1470" y="290" width="120" height="60" as="geometry" />
        </mxCell>
        <mxCell id="_uLuX_1wN8HrfHsC8-Q0-175" style="edgeStyle=orthogonalEdgeStyle;rounded=0;orthogonalLoop=1;jettySize=auto;html=1;" edge="1" parent="1" source="_uLuX_1wN8HrfHsC8-Q0-169" target="_uLuX_1wN8HrfHsC8-Q0-173">
          <mxGeometry relative="1" as="geometry" />
        </mxCell>
        <mxCell id="_uLuX_1wN8HrfHsC8-Q0-176" style="edgeStyle=orthogonalEdgeStyle;rounded=0;orthogonalLoop=1;jettySize=auto;html=1;" edge="1" parent="1" source="_uLuX_1wN8HrfHsC8-Q0-169" target="_uLuX_1wN8HrfHsC8-Q0-174">
          <mxGeometry relative="1" as="geometry" />
        </mxCell>
        <mxCell id="_uLuX_1wN8HrfHsC8-Q0-169" value="Location" style="rounded=0;whiteSpace=wrap;html=1;" vertex="1" parent="1">
          <mxGeometry x="1390" y="440" width="120" height="60" as="geometry" />
        </mxCell>
        <mxCell id="_uLuX_1wN8HrfHsC8-Q0-180" style="edgeStyle=orthogonalEdgeStyle;rounded=0;orthogonalLoop=1;jettySize=auto;html=1;entryX=1;entryY=0.5;entryDx=0;entryDy=0;" edge="1" parent="1" source="_uLuX_1wN8HrfHsC8-Q0-170" target="_uLuX_1wN8HrfHsC8-Q0-177">
          <mxGeometry relative="1" as="geometry">
            <Array as="points">
              <mxPoint x="1720" y="710" />
            </Array>
          </mxGeometry>
        </mxCell>
        <mxCell id="_uLuX_1wN8HrfHsC8-Q0-170" value="Search" style="rounded=0;whiteSpace=wrap;html=1;" vertex="1" parent="1">
          <mxGeometry x="1660" y="440" width="120" height="60" as="geometry" />
        </mxCell>
        <mxCell id="_uLuX_1wN8HrfHsC8-Q0-178" style="edgeStyle=orthogonalEdgeStyle;rounded=0;orthogonalLoop=1;jettySize=auto;html=1;entryX=0;entryY=0.5;entryDx=0;entryDy=0;" edge="1" parent="1" source="_uLuX_1wN8HrfHsC8-Q0-173" target="_uLuX_1wN8HrfHsC8-Q0-177">
          <mxGeometry relative="1" as="geometry">
            <Array as="points">
              <mxPoint x="1400" y="710" />
            </Array>
          </mxGeometry>
        </mxCell>
        <mxCell id="_uLuX_1wN8HrfHsC8-Q0-173" value="City" style="rounded=0;whiteSpace=wrap;html=1;" vertex="1" parent="1">
          <mxGeometry x="1340" y="570" width="120" height="60" as="geometry" />
        </mxCell>
        <mxCell id="_uLuX_1wN8HrfHsC8-Q0-179" style="edgeStyle=orthogonalEdgeStyle;rounded=0;orthogonalLoop=1;jettySize=auto;html=1;entryX=0.5;entryY=0;entryDx=0;entryDy=0;" edge="1" parent="1" source="_uLuX_1wN8HrfHsC8-Q0-174" target="_uLuX_1wN8HrfHsC8-Q0-177">
          <mxGeometry relative="1" as="geometry" />
        </mxCell>
        <mxCell id="_uLuX_1wN8HrfHsC8-Q0-174" value="Area" style="rounded=0;whiteSpace=wrap;html=1;" vertex="1" parent="1">
          <mxGeometry x="1490" y="570" width="120" height="60" as="geometry" />
        </mxCell>
        <mxCell id="_uLuX_1wN8HrfHsC8-Q0-184" style="edgeStyle=orthogonalEdgeStyle;rounded=0;orthogonalLoop=1;jettySize=auto;html=1;" edge="1" parent="1" source="_uLuX_1wN8HrfHsC8-Q0-177" target="_uLuX_1wN8HrfHsC8-Q0-181">
          <mxGeometry relative="1" as="geometry" />
        </mxCell>
        <mxCell id="_uLuX_1wN8HrfHsC8-Q0-185" style="edgeStyle=orthogonalEdgeStyle;rounded=0;orthogonalLoop=1;jettySize=auto;html=1;entryX=0.5;entryY=0;entryDx=0;entryDy=0;" edge="1" parent="1" source="_uLuX_1wN8HrfHsC8-Q0-177" target="_uLuX_1wN8HrfHsC8-Q0-182">
          <mxGeometry relative="1" as="geometry" />
        </mxCell>
        <mxCell id="_uLuX_1wN8HrfHsC8-Q0-177" value="Doctor List" style="rounded=0;whiteSpace=wrap;html=1;fillColor=#dae8fc;strokeColor=#6c8ebf;" vertex="1" parent="1">
          <mxGeometry x="1490" y="680" width="120" height="60" as="geometry" />
        </mxCell>
        <mxCell id="_uLuX_1wN8HrfHsC8-Q0-186" style="edgeStyle=orthogonalEdgeStyle;rounded=0;orthogonalLoop=1;jettySize=auto;html=1;" edge="1" parent="1" source="_uLuX_1wN8HrfHsC8-Q0-181" target="_uLuX_1wN8HrfHsC8-Q0-183">
          <mxGeometry relative="1" as="geometry" />
        </mxCell>
        <mxCell id="_uLuX_1wN8HrfHsC8-Q0-181" value="Date" style="rounded=0;whiteSpace=wrap;html=1;" vertex="1" parent="1">
          <mxGeometry x="1380" y="800" width="120" height="60" as="geometry" />
        </mxCell>
        <mxCell id="_uLuX_1wN8HrfHsC8-Q0-187" style="edgeStyle=orthogonalEdgeStyle;rounded=0;orthogonalLoop=1;jettySize=auto;html=1;" edge="1" parent="1" source="_uLuX_1wN8HrfHsC8-Q0-182" target="_uLuX_1wN8HrfHsC8-Q0-183">
          <mxGeometry relative="1" as="geometry" />
        </mxCell>
        <mxCell id="_uLuX_1wN8HrfHsC8-Q0-182" value="Visiting Hours" style="rounded=0;whiteSpace=wrap;html=1;" vertex="1" parent="1">
          <mxGeometry x="1590" y="800" width="120" height="60" as="geometry" />
        </mxCell>
        <mxCell id="_uLuX_1wN8HrfHsC8-Q0-183" value="Book An Appointment Now" style="rounded=0;whiteSpace=wrap;html=1;" vertex="1" parent="1">
          <mxGeometry x="1490" y="950" width="120" height="60" as="geometry" />
        </mxCell>
        <mxCell id="_uLuX_1wN8HrfHsC8-Q0-190" style="edgeStyle=orthogonalEdgeStyle;rounded=0;orthogonalLoop=1;jettySize=auto;html=1;entryX=1;entryY=0.5;entryDx=0;entryDy=0;" edge="1" parent="1" source="_uLuX_1wN8HrfHsC8-Q0-188" target="_uLuX_1wN8HrfHsC8-Q0-155">
          <mxGeometry relative="1" as="geometry">
            <Array as="points">
              <mxPoint x="840" y="1010" />
            </Array>
          </mxGeometry>
        </mxCell>
        <mxCell id="_uLuX_1wN8HrfHsC8-Q0-188" value="Favorite Product" style="rounded=0;whiteSpace=wrap;html=1;" vertex="1" parent="1">
          <mxGeometry x="780" y="910" width="120" height="60" as="geometry" />
        </mxCell>
        <mxCell id="_uLuX_1wN8HrfHsC8-Q0-194" style="edgeStyle=orthogonalEdgeStyle;rounded=0;orthogonalLoop=1;jettySize=auto;html=1;entryX=0.5;entryY=0;entryDx=0;entryDy=0;" edge="1" parent="1" source="_uLuX_1wN8HrfHsC8-Q0-191" target="_uLuX_1wN8HrfHsC8-Q0-193">
          <mxGeometry relative="1" as="geometry" />
        </mxCell>
        <mxCell id="_uLuX_1wN8HrfHsC8-Q0-191" value="My Pets" style="rounded=0;whiteSpace=wrap;html=1;fillColor=#ffe6cc;strokeColor=#d79b00;" vertex="1" parent="1">
          <mxGeometry x="110" y="290" width="120" height="60" as="geometry" />
        </mxCell>
        <mxCell id="_uLuX_1wN8HrfHsC8-Q0-198" style="edgeStyle=orthogonalEdgeStyle;rounded=0;orthogonalLoop=1;jettySize=auto;html=1;entryX=0;entryY=0.5;entryDx=0;entryDy=0;" edge="1" parent="1" source="_uLuX_1wN8HrfHsC8-Q0-193" target="_uLuX_1wN8HrfHsC8-Q0-195">
          <mxGeometry relative="1" as="geometry" />
        </mxCell>
        <mxCell id="_uLuX_1wN8HrfHsC8-Q0-199" style="edgeStyle=orthogonalEdgeStyle;rounded=0;orthogonalLoop=1;jettySize=auto;html=1;entryX=0;entryY=0.5;entryDx=0;entryDy=0;" edge="1" parent="1" source="_uLuX_1wN8HrfHsC8-Q0-193" target="_uLuX_1wN8HrfHsC8-Q0-196">
          <mxGeometry relative="1" as="geometry" />
        </mxCell>
        <mxCell id="_uLuX_1wN8HrfHsC8-Q0-200" style="edgeStyle=orthogonalEdgeStyle;rounded=0;orthogonalLoop=1;jettySize=auto;html=1;entryX=0;entryY=0.5;entryDx=0;entryDy=0;" edge="1" parent="1" source="_uLuX_1wN8HrfHsC8-Q0-193" target="_uLuX_1wN8HrfHsC8-Q0-197">
          <mxGeometry relative="1" as="geometry" />
        </mxCell>
        <mxCell id="_uLuX_1wN8HrfHsC8-Q0-202" style="edgeStyle=orthogonalEdgeStyle;rounded=0;orthogonalLoop=1;jettySize=auto;html=1;entryX=0.5;entryY=0;entryDx=0;entryDy=0;" edge="1" parent="1" source="_uLuX_1wN8HrfHsC8-Q0-193" target="_uLuX_1wN8HrfHsC8-Q0-201">
          <mxGeometry relative="1" as="geometry">
            <Array as="points">
              <mxPoint x="170" y="770" />
              <mxPoint x="-50" y="770" />
            </Array>
          </mxGeometry>
        </mxCell>
        <mxCell id="_uLuX_1wN8HrfHsC8-Q0-216" style="edgeStyle=orthogonalEdgeStyle;rounded=0;orthogonalLoop=1;jettySize=auto;html=1;entryX=0.5;entryY=0;entryDx=0;entryDy=0;" edge="1" parent="1" source="_uLuX_1wN8HrfHsC8-Q0-193" target="_uLuX_1wN8HrfHsC8-Q0-215">
          <mxGeometry relative="1" as="geometry">
            <Array as="points">
              <mxPoint x="170" y="770" />
              <mxPoint x="290" y="770" />
            </Array>
          </mxGeometry>
        </mxCell>
        <mxCell id="_uLuX_1wN8HrfHsC8-Q0-193" value="Pet List" style="rounded=0;whiteSpace=wrap;html=1;" vertex="1" parent="1">
          <mxGeometry x="110" y="420" width="120" height="60" as="geometry" />
        </mxCell>
        <mxCell id="_uLuX_1wN8HrfHsC8-Q0-195" value="Name" style="rounded=0;whiteSpace=wrap;html=1;" vertex="1" parent="1">
          <mxGeometry x="230" y="510" width="120" height="60" as="geometry" />
        </mxCell>
        <mxCell id="_uLuX_1wN8HrfHsC8-Q0-196" value="Gender" style="rounded=0;whiteSpace=wrap;html=1;" vertex="1" parent="1">
          <mxGeometry x="230" y="590" width="120" height="60" as="geometry" />
        </mxCell>
        <mxCell id="_uLuX_1wN8HrfHsC8-Q0-197" value="Type" style="rounded=0;whiteSpace=wrap;html=1;" vertex="1" parent="1">
          <mxGeometry x="230" y="670" width="120" height="60" as="geometry" />
        </mxCell>
        <mxCell id="_uLuX_1wN8HrfHsC8-Q0-204" style="edgeStyle=orthogonalEdgeStyle;rounded=0;orthogonalLoop=1;jettySize=auto;html=1;entryX=0;entryY=0.5;entryDx=0;entryDy=0;" edge="1" parent="1" source="_uLuX_1wN8HrfHsC8-Q0-201" target="_uLuX_1wN8HrfHsC8-Q0-203">
          <mxGeometry relative="1" as="geometry" />
        </mxCell>
        <mxCell id="_uLuX_1wN8HrfHsC8-Q0-210" style="edgeStyle=orthogonalEdgeStyle;rounded=0;orthogonalLoop=1;jettySize=auto;html=1;entryX=0;entryY=0.5;entryDx=0;entryDy=0;" edge="1" parent="1" source="_uLuX_1wN8HrfHsC8-Q0-201" target="_uLuX_1wN8HrfHsC8-Q0-205">
          <mxGeometry relative="1" as="geometry" />
        </mxCell>
        <mxCell id="_uLuX_1wN8HrfHsC8-Q0-211" style="edgeStyle=orthogonalEdgeStyle;rounded=0;orthogonalLoop=1;jettySize=auto;html=1;entryX=0;entryY=0.5;entryDx=0;entryDy=0;" edge="1" parent="1" source="_uLuX_1wN8HrfHsC8-Q0-201" target="_uLuX_1wN8HrfHsC8-Q0-206">
          <mxGeometry relative="1" as="geometry" />
        </mxCell>
        <mxCell id="_uLuX_1wN8HrfHsC8-Q0-212" style="edgeStyle=orthogonalEdgeStyle;rounded=0;orthogonalLoop=1;jettySize=auto;html=1;entryX=0;entryY=0.5;entryDx=0;entryDy=0;" edge="1" parent="1" source="_uLuX_1wN8HrfHsC8-Q0-201" target="_uLuX_1wN8HrfHsC8-Q0-207">
          <mxGeometry relative="1" as="geometry" />
        </mxCell>
        <mxCell id="_uLuX_1wN8HrfHsC8-Q0-213" style="edgeStyle=orthogonalEdgeStyle;rounded=0;orthogonalLoop=1;jettySize=auto;html=1;entryX=0;entryY=0.5;entryDx=0;entryDy=0;" edge="1" parent="1" source="_uLuX_1wN8HrfHsC8-Q0-201" target="_uLuX_1wN8HrfHsC8-Q0-208">
          <mxGeometry relative="1" as="geometry" />
        </mxCell>
        <mxCell id="_uLuX_1wN8HrfHsC8-Q0-214" style="edgeStyle=orthogonalEdgeStyle;rounded=0;orthogonalLoop=1;jettySize=auto;html=1;entryX=0;entryY=0.5;entryDx=0;entryDy=0;" edge="1" parent="1" source="_uLuX_1wN8HrfHsC8-Q0-201" target="_uLuX_1wN8HrfHsC8-Q0-209">
          <mxGeometry relative="1" as="geometry" />
        </mxCell>
        <mxCell id="_uLuX_1wN8HrfHsC8-Q0-201" value="Pet Information" style="rounded=0;whiteSpace=wrap;html=1;fillColor=#dae8fc;strokeColor=#6c8ebf;" vertex="1" parent="1">
          <mxGeometry x="-110" y="820" width="120" height="60" as="geometry" />
        </mxCell>
        <mxCell id="_uLuX_1wN8HrfHsC8-Q0-203" value="Name" style="rounded=0;whiteSpace=wrap;html=1;" vertex="1" parent="1">
          <mxGeometry x="-10" y="910" width="120" height="60" as="geometry" />
        </mxCell>
        <mxCell id="_uLuX_1wN8HrfHsC8-Q0-205" value="Weight" style="rounded=0;whiteSpace=wrap;html=1;" vertex="1" parent="1">
          <mxGeometry x="-10" y="1000" width="120" height="60" as="geometry" />
        </mxCell>
        <mxCell id="_uLuX_1wN8HrfHsC8-Q0-206" value="Height" style="rounded=0;whiteSpace=wrap;html=1;" vertex="1" parent="1">
          <mxGeometry x="-10" y="1090" width="120" height="60" as="geometry" />
        </mxCell>
        <mxCell id="_uLuX_1wN8HrfHsC8-Q0-207" value="Age" style="rounded=0;whiteSpace=wrap;html=1;" vertex="1" parent="1">
          <mxGeometry x="-10" y="1180.5" width="120" height="60" as="geometry" />
        </mxCell>
        <mxCell id="_uLuX_1wN8HrfHsC8-Q0-208" value="Weight Report" style="rounded=0;whiteSpace=wrap;html=1;" vertex="1" parent="1">
          <mxGeometry x="-10" y="1270" width="120" height="60" as="geometry" />
        </mxCell>
        <mxCell id="_uLuX_1wN8HrfHsC8-Q0-209" value="Blood Pressure" style="rounded=0;whiteSpace=wrap;html=1;" vertex="1" parent="1">
          <mxGeometry x="-10" y="1360" width="120" height="60" as="geometry" />
        </mxCell>
        <mxCell id="_uLuX_1wN8HrfHsC8-Q0-220" style="edgeStyle=orthogonalEdgeStyle;rounded=0;orthogonalLoop=1;jettySize=auto;html=1;entryX=0;entryY=0.5;entryDx=0;entryDy=0;" edge="1" parent="1" source="_uLuX_1wN8HrfHsC8-Q0-215" target="_uLuX_1wN8HrfHsC8-Q0-217">
          <mxGeometry relative="1" as="geometry">
            <Array as="points">
              <mxPoint x="290" y="940" />
            </Array>
          </mxGeometry>
        </mxCell>
        <mxCell id="_uLuX_1wN8HrfHsC8-Q0-221" style="edgeStyle=orthogonalEdgeStyle;rounded=0;orthogonalLoop=1;jettySize=auto;html=1;entryX=0;entryY=0.5;entryDx=0;entryDy=0;" edge="1" parent="1" source="_uLuX_1wN8HrfHsC8-Q0-215" target="_uLuX_1wN8HrfHsC8-Q0-218">
          <mxGeometry relative="1" as="geometry">
            <Array as="points">
              <mxPoint x="290" y="1040" />
            </Array>
          </mxGeometry>
        </mxCell>
        <mxCell id="_uLuX_1wN8HrfHsC8-Q0-222" style="edgeStyle=orthogonalEdgeStyle;rounded=0;orthogonalLoop=1;jettySize=auto;html=1;entryX=0;entryY=0.5;entryDx=0;entryDy=0;" edge="1" parent="1" source="_uLuX_1wN8HrfHsC8-Q0-215" target="_uLuX_1wN8HrfHsC8-Q0-219">
          <mxGeometry relative="1" as="geometry">
            <Array as="points">
              <mxPoint x="290" y="1140" />
            </Array>
          </mxGeometry>
        </mxCell>
        <mxCell id="_uLuX_1wN8HrfHsC8-Q0-215" value="Set Reminder" style="rounded=0;whiteSpace=wrap;html=1;fillColor=#dae8fc;strokeColor=#6c8ebf;" vertex="1" parent="1">
          <mxGeometry x="230" y="820" width="120" height="60" as="geometry" />
        </mxCell>
        <mxCell id="_uLuX_1wN8HrfHsC8-Q0-217" value="Pet Name" style="rounded=0;whiteSpace=wrap;html=1;" vertex="1" parent="1">
          <mxGeometry x="360" y="910" width="120" height="60" as="geometry" />
        </mxCell>
        <mxCell id="_uLuX_1wN8HrfHsC8-Q0-218" value="Reminder Type" style="rounded=0;whiteSpace=wrap;html=1;" vertex="1" parent="1">
          <mxGeometry x="360" y="1010" width="120" height="60" as="geometry" />
        </mxCell>
        <mxCell id="_uLuX_1wN8HrfHsC8-Q0-219" value="Time" style="rounded=0;whiteSpace=wrap;html=1;" vertex="1" parent="1">
          <mxGeometry x="360" y="1110" width="120" height="60" as="geometry" />
        </mxCell>
        <mxCell id="_uLuX_1wN8HrfHsC8-Q0-226" style="edgeStyle=orthogonalEdgeStyle;rounded=0;orthogonalLoop=1;jettySize=auto;html=1;" edge="1" parent="1" source="_uLuX_1wN8HrfHsC8-Q0-223" target="_uLuX_1wN8HrfHsC8-Q0-225">
          <mxGeometry relative="1" as="geometry">
            <Array as="points">
              <mxPoint x="2090" y="400" />
              <mxPoint x="1960" y="400" />
            </Array>
          </mxGeometry>
        </mxCell>
        <mxCell id="_uLuX_1wN8HrfHsC8-Q0-238" style="edgeStyle=orthogonalEdgeStyle;rounded=0;orthogonalLoop=1;jettySize=auto;html=1;" edge="1" parent="1" source="_uLuX_1wN8HrfHsC8-Q0-223" target="_uLuX_1wN8HrfHsC8-Q0-237">
          <mxGeometry relative="1" as="geometry">
            <Array as="points">
              <mxPoint x="2090" y="400" />
              <mxPoint x="2920" y="400" />
            </Array>
          </mxGeometry>
        </mxCell>
        <mxCell id="_uLuX_1wN8HrfHsC8-Q0-240" style="edgeStyle=orthogonalEdgeStyle;rounded=0;orthogonalLoop=1;jettySize=auto;html=1;" edge="1" parent="1" source="_uLuX_1wN8HrfHsC8-Q0-223" target="_uLuX_1wN8HrfHsC8-Q0-239">
          <mxGeometry relative="1" as="geometry">
            <Array as="points">
              <mxPoint x="2090" y="400" />
              <mxPoint x="2280" y="400" />
            </Array>
          </mxGeometry>
        </mxCell>
        <mxCell id="_uLuX_1wN8HrfHsC8-Q0-248" style="edgeStyle=orthogonalEdgeStyle;rounded=0;orthogonalLoop=1;jettySize=auto;html=1;entryX=0.5;entryY=0;entryDx=0;entryDy=0;" edge="1" parent="1" source="_uLuX_1wN8HrfHsC8-Q0-223" target="_uLuX_1wN8HrfHsC8-Q0-247">
          <mxGeometry relative="1" as="geometry">
            <Array as="points">
              <mxPoint x="2090" y="400" />
              <mxPoint x="2640" y="400" />
            </Array>
          </mxGeometry>
        </mxCell>
        <mxCell id="_uLuX_1wN8HrfHsC8-Q0-223" value="Profile" style="rounded=0;whiteSpace=wrap;html=1;fillColor=#ffe6cc;strokeColor=#d79b00;" vertex="1" parent="1">
          <mxGeometry x="2030" y="290" width="120" height="60" as="geometry" />
        </mxCell>
        <mxCell id="_uLuX_1wN8HrfHsC8-Q0-232" style="edgeStyle=orthogonalEdgeStyle;rounded=0;orthogonalLoop=1;jettySize=auto;html=1;entryX=0;entryY=0.5;entryDx=0;entryDy=0;" edge="1" parent="1" source="_uLuX_1wN8HrfHsC8-Q0-225" target="_uLuX_1wN8HrfHsC8-Q0-227">
          <mxGeometry relative="1" as="geometry" />
        </mxCell>
        <mxCell id="_uLuX_1wN8HrfHsC8-Q0-233" style="edgeStyle=orthogonalEdgeStyle;rounded=0;orthogonalLoop=1;jettySize=auto;html=1;entryX=0;entryY=0.5;entryDx=0;entryDy=0;" edge="1" parent="1" source="_uLuX_1wN8HrfHsC8-Q0-225" target="_uLuX_1wN8HrfHsC8-Q0-231">
          <mxGeometry relative="1" as="geometry" />
        </mxCell>
        <mxCell id="_uLuX_1wN8HrfHsC8-Q0-234" style="edgeStyle=orthogonalEdgeStyle;rounded=0;orthogonalLoop=1;jettySize=auto;html=1;entryX=0;entryY=0.5;entryDx=0;entryDy=0;" edge="1" parent="1" source="_uLuX_1wN8HrfHsC8-Q0-225" target="_uLuX_1wN8HrfHsC8-Q0-228">
          <mxGeometry relative="1" as="geometry" />
        </mxCell>
        <mxCell id="_uLuX_1wN8HrfHsC8-Q0-235" style="edgeStyle=orthogonalEdgeStyle;rounded=0;orthogonalLoop=1;jettySize=auto;html=1;entryX=0;entryY=0.5;entryDx=0;entryDy=0;" edge="1" parent="1" source="_uLuX_1wN8HrfHsC8-Q0-225" target="_uLuX_1wN8HrfHsC8-Q0-229">
          <mxGeometry relative="1" as="geometry" />
        </mxCell>
        <mxCell id="_uLuX_1wN8HrfHsC8-Q0-236" style="edgeStyle=orthogonalEdgeStyle;rounded=0;orthogonalLoop=1;jettySize=auto;html=1;entryX=0;entryY=0.5;entryDx=0;entryDy=0;" edge="1" parent="1" source="_uLuX_1wN8HrfHsC8-Q0-225" target="_uLuX_1wN8HrfHsC8-Q0-230">
          <mxGeometry relative="1" as="geometry" />
        </mxCell>
        <mxCell id="_uLuX_1wN8HrfHsC8-Q0-225" value="Basic Information" style="rounded=0;whiteSpace=wrap;html=1;fillColor=#dae8fc;strokeColor=#6c8ebf;" vertex="1" parent="1">
          <mxGeometry x="1900" y="440" width="120" height="60" as="geometry" />
        </mxCell>
        <mxCell id="_uLuX_1wN8HrfHsC8-Q0-227" value="First Name" style="rounded=0;whiteSpace=wrap;html=1;" vertex="1" parent="1">
          <mxGeometry x="1990" y="530" width="120" height="60" as="geometry" />
        </mxCell>
        <mxCell id="_uLuX_1wN8HrfHsC8-Q0-228" value="Contact Number" style="rounded=0;whiteSpace=wrap;html=1;" vertex="1" parent="1">
          <mxGeometry x="1990" y="700" width="120" height="60" as="geometry" />
        </mxCell>
        <mxCell id="_uLuX_1wN8HrfHsC8-Q0-229" value="Email" style="rounded=0;whiteSpace=wrap;html=1;" vertex="1" parent="1">
          <mxGeometry x="1990" y="790" width="120" height="60" as="geometry" />
        </mxCell>
        <mxCell id="_uLuX_1wN8HrfHsC8-Q0-230" value="Mailing Address" style="rounded=0;whiteSpace=wrap;html=1;" vertex="1" parent="1">
          <mxGeometry x="1990" y="880" width="120" height="60" as="geometry" />
        </mxCell>
        <mxCell id="_uLuX_1wN8HrfHsC8-Q0-231" value="Last Name" style="rounded=0;whiteSpace=wrap;html=1;" vertex="1" parent="1">
          <mxGeometry x="1990" y="610" width="120" height="60" as="geometry" />
        </mxCell>
        <mxCell id="_uLuX_1wN8HrfHsC8-Q0-237" value="Logout" style="rounded=0;whiteSpace=wrap;html=1;fillColor=#dae8fc;strokeColor=#6c8ebf;" vertex="1" parent="1">
          <mxGeometry x="2860" y="440" width="120" height="60" as="geometry" />
        </mxCell>
        <mxCell id="_uLuX_1wN8HrfHsC8-Q0-242" style="edgeStyle=orthogonalEdgeStyle;rounded=0;orthogonalLoop=1;jettySize=auto;html=1;entryX=0;entryY=0.5;entryDx=0;entryDy=0;" edge="1" parent="1" source="_uLuX_1wN8HrfHsC8-Q0-239" target="_uLuX_1wN8HrfHsC8-Q0-241">
          <mxGeometry relative="1" as="geometry" />
        </mxCell>
        <mxCell id="_uLuX_1wN8HrfHsC8-Q0-244" style="edgeStyle=orthogonalEdgeStyle;rounded=0;orthogonalLoop=1;jettySize=auto;html=1;entryX=0;entryY=0.5;entryDx=0;entryDy=0;" edge="1" parent="1" source="_uLuX_1wN8HrfHsC8-Q0-239" target="_uLuX_1wN8HrfHsC8-Q0-243">
          <mxGeometry relative="1" as="geometry" />
        </mxCell>
        <mxCell id="_uLuX_1wN8HrfHsC8-Q0-246" style="edgeStyle=orthogonalEdgeStyle;rounded=0;orthogonalLoop=1;jettySize=auto;html=1;entryX=0;entryY=0.5;entryDx=0;entryDy=0;" edge="1" parent="1" source="_uLuX_1wN8HrfHsC8-Q0-239" target="_uLuX_1wN8HrfHsC8-Q0-245">
          <mxGeometry relative="1" as="geometry" />
        </mxCell>
        <mxCell id="_uLuX_1wN8HrfHsC8-Q0-239" value="My Orders" style="rounded=0;whiteSpace=wrap;html=1;fillColor=#dae8fc;strokeColor=#6c8ebf;" vertex="1" parent="1">
          <mxGeometry x="2220" y="450" width="120" height="60" as="geometry" />
        </mxCell>
        <mxCell id="_uLuX_1wN8HrfHsC8-Q0-241" value="Item List" style="rounded=0;whiteSpace=wrap;html=1;" vertex="1" parent="1">
          <mxGeometry x="2330" y="570" width="120" height="60" as="geometry" />
        </mxCell>
        <mxCell id="_uLuX_1wN8HrfHsC8-Q0-243" value="Delivery Status" style="rounded=0;whiteSpace=wrap;html=1;" vertex="1" parent="1">
          <mxGeometry x="2330" y="770" width="120" height="60" as="geometry" />
        </mxCell>
        <mxCell id="_uLuX_1wN8HrfHsC8-Q0-245" value="Delivery Address" style="rounded=0;whiteSpace=wrap;html=1;" vertex="1" parent="1">
          <mxGeometry x="2330" y="670" width="120" height="60" as="geometry" />
        </mxCell>
        <mxCell id="_uLuX_1wN8HrfHsC8-Q0-252" style="edgeStyle=orthogonalEdgeStyle;rounded=0;orthogonalLoop=1;jettySize=auto;html=1;entryX=0;entryY=0.5;entryDx=0;entryDy=0;" edge="1" parent="1" source="_uLuX_1wN8HrfHsC8-Q0-247" target="_uLuX_1wN8HrfHsC8-Q0-249">
          <mxGeometry relative="1" as="geometry" />
        </mxCell>
        <mxCell id="_uLuX_1wN8HrfHsC8-Q0-253" style="edgeStyle=orthogonalEdgeStyle;rounded=0;orthogonalLoop=1;jettySize=auto;html=1;entryX=0;entryY=0.5;entryDx=0;entryDy=0;" edge="1" parent="1" source="_uLuX_1wN8HrfHsC8-Q0-247" target="_uLuX_1wN8HrfHsC8-Q0-250">
          <mxGeometry relative="1" as="geometry" />
        </mxCell>
        <mxCell id="_uLuX_1wN8HrfHsC8-Q0-254" style="edgeStyle=orthogonalEdgeStyle;rounded=0;orthogonalLoop=1;jettySize=auto;html=1;entryX=0;entryY=0.5;entryDx=0;entryDy=0;" edge="1" parent="1" source="_uLuX_1wN8HrfHsC8-Q0-247" target="_uLuX_1wN8HrfHsC8-Q0-251">
          <mxGeometry relative="1" as="geometry" />
        </mxCell>
        <mxCell id="_uLuX_1wN8HrfHsC8-Q0-256" style="edgeStyle=orthogonalEdgeStyle;rounded=0;orthogonalLoop=1;jettySize=auto;html=1;entryX=0;entryY=0.5;entryDx=0;entryDy=0;" edge="1" parent="1" source="_uLuX_1wN8HrfHsC8-Q0-247" target="_uLuX_1wN8HrfHsC8-Q0-255">
          <mxGeometry relative="1" as="geometry" />
        </mxCell>
        <mxCell id="_uLuX_1wN8HrfHsC8-Q0-247" value="My Appointments" style="rounded=0;whiteSpace=wrap;html=1;fillColor=#dae8fc;strokeColor=#6c8ebf;" vertex="1" parent="1">
          <mxGeometry x="2580" y="450" width="120" height="60" as="geometry" />
        </mxCell>
        <mxCell id="_uLuX_1wN8HrfHsC8-Q0-249" value="Doctor Name" style="rounded=0;whiteSpace=wrap;html=1;" vertex="1" parent="1">
          <mxGeometry x="2680" y="550" width="120" height="60" as="geometry" />
        </mxCell>
        <mxCell id="_uLuX_1wN8HrfHsC8-Q0-250" value="Location" style="rounded=0;whiteSpace=wrap;html=1;" vertex="1" parent="1">
          <mxGeometry x="2680" y="640" width="120" height="60" as="geometry" />
        </mxCell>
        <mxCell id="_uLuX_1wN8HrfHsC8-Q0-251" value="Date and Time" style="rounded=0;whiteSpace=wrap;html=1;" vertex="1" parent="1">
          <mxGeometry x="2680" y="730" width="120" height="60" as="geometry" />
        </mxCell>
        <mxCell id="_uLuX_1wN8HrfHsC8-Q0-255" value="Cancel Appointment" style="rounded=0;whiteSpace=wrap;html=1;" vertex="1" parent="1">
          <mxGeometry x="2680" y="820" width="120" height="60" as="geometry" />
        </mxCell>
        <mxCell id="_uLuX_1wN8HrfHsC8-Q0-257" value="&lt;font style=&quot;font-size: 26px;&quot;&gt;&lt;b&gt;&lt;u&gt;Site Map + Flowchart&lt;/u&gt;&lt;/b&gt;&lt;/font&gt;" style="text;html=1;strokeColor=none;fillColor=none;align=center;verticalAlign=middle;whiteSpace=wrap;rounded=0;" vertex="1" parent="1">
          <mxGeometry x="700" y="30" width="460" height="30" as="geometry" />
        </mxCell>
        <mxCell id="_uLuX_1wN8HrfHsC8-Q0-258" value="" style="rounded=0;whiteSpace=wrap;html=1;fillColor=#ffe6cc;strokeColor=#d79b00;" vertex="1" parent="1">
          <mxGeometry x="1100" y="70" width="30" height="30" as="geometry" />
        </mxCell>
        <mxCell id="_uLuX_1wN8HrfHsC8-Q0-259" value="" style="rounded=0;whiteSpace=wrap;html=1;fillColor=#dae8fc;strokeColor=#6c8ebf;" vertex="1" parent="1">
          <mxGeometry x="1100" y="120" width="30" height="30" as="geometry" />
        </mxCell>
        <mxCell id="_uLuX_1wN8HrfHsC8-Q0-260" value="" style="rounded=0;whiteSpace=wrap;html=1;" vertex="1" parent="1">
          <mxGeometry x="1100" y="170" width="30" height="30" as="geometry" />
        </mxCell>
        <mxCell id="_uLuX_1wN8HrfHsC8-Q0-261" value="Main Page" style="text;html=1;strokeColor=none;fillColor=none;align=center;verticalAlign=middle;whiteSpace=wrap;rounded=0;" vertex="1" parent="1">
          <mxGeometry x="1140" y="70" width="60" height="30" as="geometry" />
        </mxCell>
        <mxCell id="_uLuX_1wN8HrfHsC8-Q0-262" value="Sub Page" style="text;html=1;strokeColor=none;fillColor=none;align=center;verticalAlign=middle;whiteSpace=wrap;rounded=0;" vertex="1" parent="1">
          <mxGeometry x="1140" y="120" width="60" height="30" as="geometry" />
        </mxCell>
        <mxCell id="_uLuX_1wN8HrfHsC8-Q0-263" value="Functions" style="text;html=1;strokeColor=none;fillColor=none;align=center;verticalAlign=middle;whiteSpace=wrap;rounded=0;" vertex="1" parent="1">
          <mxGeometry x="1140" y="170" width="60" height="30" as="geometry" />
        </mxCell>
      </root>
    </mxGraphModel>
  </diagram>
</mxfile>
